<svg width="16" height="16" viewBox="0 0 16 16" fill="none" xmlns="http://www.w3.org/2000/svg">
                    <g clip-path="url(#clip0_2295_5)">
                    <path d="M8.25586 6.45355C7.75858 6.45355 7.28166 6.6511 6.93003 7.00273C6.5784 7.35436 6.38086 7.83127 6.38086 8.32855C6.38086 8.82583 6.5784 9.30275 6.93003 9.65438C7.28166 10.006 7.75858 10.2036 8.25586 10.2036C8.75314 10.2036 9.23005 10.006 9.58168 9.65438C9.93332 9.30275 10.1309 8.82583 10.1309 8.32855C10.1309 7.83127 9.93332 7.35436 9.58168 7.00273C9.23005 6.6511 8.75314 6.45355 8.25586 6.45355ZM8.25586 11.4536C7.42706 11.4536 6.6322 11.1243 6.04615 10.5383C5.4601 9.95221 5.13086 9.15735 5.13086 8.32855C5.13086 7.49975 5.4601 6.70489 6.04615 6.11884C6.6322 5.53279 7.42706 5.20355 8.25586 5.20355C9.08466 5.20355 9.87952 5.53279 10.4656 6.11884C11.0516 6.70489 11.3809 7.49975 11.3809 8.32855C11.3809 9.15735 11.0516 9.95221 10.4656 10.5383C9.87952 11.1243 9.08466 11.4536 8.25586 11.4536ZM8.25586 3.64105C5.13086 3.64105 2.46211 5.5848 1.38086 8.32855C2.46211 11.0723 5.13086 13.0161 8.25586 13.0161C11.3809 13.0161 14.0496 11.0723 15.1309 8.32855C14.0496 5.5848 11.3809 3.64105 8.25586 3.64105Z" fill="black"/>
                    </g>
                    <defs>
                    <clipPath id="clip0_2295_5">
                    <rect width="15" height="15" fill="white" transform="translate(0.755859 0.828552)"/>
                    </clipPath>
                    </defs>
                </svg>